<?xml version="1.0" encoding="utf-8"?>
<!-- Generator: Adobe Illustrator 22.0.0, SVG Export Plug-In . SVG Version: 6.00 Build 0)  -->
<svg version="1.1" id="master-artboard" xmlns="http://www.w3.org/2000/svg" xmlns:xlink="http://www.w3.org/1999/xlink" x="0px"
	 y="0px" viewBox="0 0 377.4 71.1" style="enable-background:new 0 0 377.4 71.1;" xml:space="preserve">
<style type="text/css">
	.st0{fill:#FFFFFF;fill-opacity:0;}
	.st1{fill:#634AEF;}
	.st2{fill:#8C8EFF;}
	.st3{fill:#FF1C3A;}
</style>
<rect id="ee-background" class="st0" width="400.9" height="57"/>
<g>
	<g>
		<g transform="matrix(1.622025728225708, 0, 0, 1.622025728225708, -664.5214680431313, -595.3967433298022)">
			<path class="st1" d="M638.2,384.2c-3.9,0.7-8.1,3.1-11.7,4.9c-1.6,0.8-0.9,2.3,0.7,1.7c3.8-1.3,8.4-2.7,11.6-5
				C639.9,385,639.4,384,638.2,384.2z"/>
			<path class="st2" d="M616.9,398.2c-4.4,0.4-9,3.2-12.8,5.3c-1.7,0.9-0.7,3.2,1.1,2.7c4.2-1.3,9.4-2.6,12.7-5.5
				C619,399.7,618.3,398.1,616.9,398.2z"/>
			<path class="st1" d="M425.8,388.9c-3.7-2.2-9-3.3-13.2-4.4c-1.9-0.5-2.4,1.2-0.6,1.9c4,1.6,8.9,3.8,13.2,4.2
				C426.6,390.8,427,389.6,425.8,388.9z"/>
			<path class="st2" d="M455.8,403.2c-3.6-2.6-8.9-3.5-13.2-4.4c-1.9-0.4-2.7,2-0.9,2.7c4,1.7,8.8,4.2,13.2,4.2
				C456.4,405.7,457,404,455.8,403.2z"/>
		</g>
		<path class="st3" d="M74.1,43.4c-2.6,0-5-0.3-7.2-0.9c-2.2-0.6-3.8-1.1-4.7-1.7c-0.9-0.6-1.5-1-1.8-1.2c-0.8-0.6-1.2-1.5-1.2-2.6
			c0-0.9,0.1-1.7,0.3-2.5c0.4-1.5,1.1-2.2,2.1-2.2c0.3,0,1.4,0.4,3.2,1c1.8,0.7,3.2,1,4.2,1c1.5,0,2.3-0.6,2.3-1.8
			c0-0.7-0.4-1.4-1.1-2c-0.7-0.6-1.7-1.2-2.7-1.8c-1.1-0.6-2.1-1.2-3.2-1.9c-1.1-0.7-2-1.8-2.7-3.1c-0.7-1.3-1.1-2.8-1.1-4.5
			c0-2.9,1.4-5.1,4.2-6.8C67.4,10.9,71,10,75.5,10c4.5,0,8,0.5,10.6,1.4c2.6,0.9,3.9,2.2,3.9,3.8c0,1.2-0.3,2.2-0.8,3.1
			c-0.5,0.9-1.1,1.3-1.7,1.3c-0.2,0-0.9-0.2-2.1-0.7c-1.2-0.5-2.3-0.7-3.2-0.7c-1.9,0-2.8,0.7-2.8,2.2c0,0.7,0.4,1.4,1.3,2
			c0.9,0.6,2,1.2,3.3,1.7c1.3,0.6,2.6,1.2,3.8,1.9c1.3,0.7,2.4,1.6,3.3,2.8c0.9,1.2,1.3,2.7,1.3,4.4c0,1.7-0.5,3.3-1.6,4.7
			c-1.1,1.4-2.5,2.5-4.3,3.3C82.9,42.6,78.8,43.4,74.1,43.4z M109.7,31.3c0,3.4,0.9,5,2.6,5c1.8,0,2.7-1.7,2.7-5
			c0-1.5-0.2-2.7-0.5-3.5c-0.4-0.8-1.1-1.2-2.1-1.2s-1.8,0.4-2.1,1.2C109.9,28.6,109.7,29.8,109.7,31.3 M129.1,31.3
			c0,8.1-5.6,12.2-16.7,12.2s-16.7-4.1-16.7-12.2c0-3.9,1.4-6.9,4.3-9c2.8-2.1,7-3.2,12.5-3.2s9.6,1.1,12.5,3.2
			C127.7,24.4,129.1,27.4,129.1,31.3z M148.3,26.5c-1.8,0-2.6,1.5-2.6,4.4s0.9,4.4,2.6,4.4c0.7,0,1.3-0.2,1.9-0.7
			c0.5-0.5,0.8-1.1,0.8-1.9v-3.5c0-0.8-0.3-1.5-0.8-1.9C149.6,26.8,149,26.5,148.3,26.5 M163.1,42.4l-4.8,0.1c-1.7,0-2.9,0-3.5-0.1
			c-1.9-0.1-2.8-1.2-2.8-3.1c-1.1,1.3-2.5,2.3-4.3,3c-1.8,0.8-3.4,1.2-4.8,1.2c-3,0-5.5-1-7.4-3c-1.9-2-2.9-5-2.9-9.1
			c0-5.2,1.8-8.7,5.3-10.8c1.9-1.1,4-1.7,6.5-1.7c2.5,0,4.6,0.6,6.3,1.7c0.6,0.4,0.9,0.3,1-0.4c0-0.6,0.1-1.6,0.1-2.8v-3.7
			c0-0.6,0-1.2,0.1-1.8c0-0.6,0.2-1.1,0.5-1.5c0.3-0.4,1-0.6,2-0.6h8.6c1,0,1.7,0.2,2,0.7c0.3,0.5,0.5,1.2,0.6,2.2
			c0.1,4.2,0.1,8.6,0.1,13c0,0,0,4.9-0.1,14.7c0,0.6-0.3,1.1-0.8,1.5C164.3,42.2,163.7,42.4,163.1,42.4z M186.5,18.9
			c9.8,0,14.7,3.2,14.8,9.5c0.1,2.7,0.1,5.2,0.1,7.4c0,2.2,0,3.8,0,4.5c0,0.8-0.2,1.3-0.6,1.7c-0.4,0.3-1.1,0.5-2.2,0.5H189
			c-1,0-1.6-0.2-2-0.5c-0.4-0.3-0.6-0.9-0.6-1.6c0,0,0-0.1,0-0.1c0-0.1,0-0.1,0-0.2c-2,2-4.7,3-8.1,3c-2.4,0-4.4-0.6-6-1.8
			c-1.7-1.2-2.5-2.8-2.5-4.9c0-2.1,0.6-3.7,1.8-5c1.2-1.2,2.6-2.1,4.2-2.5c1.6-0.4,3.4-0.7,5.3-0.7s3.7,0.2,5.5,0.5v-0.2
			c0-1.5-0.3-2.6-0.9-3.2c-0.6-0.6-1.5-1-2.8-1c-1.3,0-2.4,0.1-3.3,0.3c-0.9,0.2-1.5,0.5-2,0.7c-1.2,0.7-2.1,1.1-2.6,1.1
			c-0.5,0-0.9-0.2-1.3-0.7c-0.4-0.4-0.6-1.1-0.6-2.1c0-0.9,0.2-1.6,0.5-2c0.3-0.3,0.9-0.7,1.6-1.1C177.9,19.6,181.7,18.9,186.5,18.9
			 M184.4,37.3c1.3,0,2-0.3,2-0.8c0.1-1,0.1-2.3,0.1-3.9c0-0.6-0.5-0.9-1.4-0.9s-1.7,0.2-2.3,0.7c-0.6,0.5-0.9,1.1-0.9,2
			c0,0.9,0.2,1.6,0.7,2.1C183,37.1,183.6,37.3,184.4,37.3z M228.2,11.1h12c1.3,0,2.1,0.3,2.5,0.9c0.4,0.6,0.7,1.9,0.8,3.9
			c0.1,2,0.2,5.8,0.2,11.4c0,5.6-0.1,9.8-0.4,12.4c-0.1,0.7-0.4,1.3-0.9,1.9c-0.5,0.5-1.2,0.8-2.1,0.9c-1.7,0.1-3.7,0.2-5.9,0.2
			s-4.4-0.1-6.4-0.2c-0.9-0.1-1.6-0.4-2.1-0.9c-0.5-0.5-0.8-1.2-0.9-1.9c-0.2-2.6-0.4-6.8-0.4-12.4c0-5.7,0.1-9.5,0.2-11.4
			c0.1-2,0.4-3.3,0.8-3.9C226.1,11.4,226.9,11.1,228.2,11.1z M268.6,40.6l0-11c0-0.9-0.2-1.6-0.7-2c-0.4-0.4-1-0.7-1.7-0.7
			c-0.7,0-1.3,0.2-1.8,0.7c-0.6,0.5-0.8,1.1-0.8,2v2.7c0,4-0.1,6.6-0.3,8.1c-0.1,0.5-0.3,1-0.8,1.3s-1.2,0.6-2.2,0.7
			c-1.1,0.1-2.1,0.1-3.2,0.1c-1,0-2.8-0.1-5.4-0.2c-0.7,0-1.3-0.2-1.7-0.6c-0.4-0.4-0.6-0.8-0.7-1.3c-0.2-1.9-0.3-4.9-0.3-8.9
			c0-4,0.1-6.8,0.2-8.3c0.1-1.5,0.3-2.5,0.7-2.9c0.3-0.4,1-0.7,2-0.7h8.8c1,0,1.7,0.2,2,0.7c0.3,0.4,0.6,1.2,0.7,2.3v0
			c2.3-2.4,5.1-3.6,8.4-3.6c3.3,0,5.9,0.8,7.8,2.4c1.9,1.6,2.9,3.8,2.9,6.7c0,2.8,0.1,5.4,0.1,7.6c0,2.2,0,3.8,0,4.5
			c0,0.8-0.2,1.3-0.6,1.7c-0.4,0.3-1.1,0.5-2.2,0.5l-8.6,0.1c-0.9,0-1.6-0.2-2-0.5C268.8,41.8,268.6,41.3,268.6,40.6z M306.4,26.1
			c-1.4,0-2.5,0.5-3.1,1.4c-0.7,0.9-1,2.1-1,3.5c0,1.4,0.4,2.6,1.2,3.6c0.8,1,2.1,1.5,3.9,1.5c0.6,0,1.4-0.1,2.5-0.4
			c1.1-0.3,1.9-0.4,2.3-0.4c1,0,1.6,1,1.6,3c0,0.9,0,1.7-0.1,2.4c-0.1,0.7-0.7,1.3-1.7,1.6c-3,0.9-5.6,1.4-7.9,1.4
			c-2.3,0-4.2-0.1-5.6-0.2c-1.4-0.2-2.9-0.5-4.4-1c-1.5-0.5-2.7-1.2-3.7-2c-1-0.8-1.8-2-2.4-3.4c-0.6-1.4-0.9-3.2-0.9-5.4
			c0-2.2,0.5-4.1,1.4-5.8c0.9-1.7,2.2-3,3.9-3.9c3.1-1.7,7-2.5,11.7-2.5c2.5,0,5.1,0.4,7.7,1.2c1.1,0.3,1.6,1.6,1.6,3.6
			c0,2-0.5,3.1-1.6,3.1c-0.4,0-1.3-0.2-2.4-0.5C308.2,26.3,307.2,26.1,306.4,26.1z M317.9,38.2c0,0,0-0.4,0-1.1
			c0-0.7,0.5-1.6,1.6-2.6c1.1-1,2.5-1.5,4.3-1.5s3.1,0.5,4,1.5c0.9,1,1.3,2.1,1.3,3.4s-0.5,2.5-1.6,3.6c-1,1.1-2.4,1.6-3.9,1.6
			s-2.9-0.4-4-1.3C318.5,40.8,317.9,39.7,317.9,38.2z"/>
	</g>
</g>
</svg>
